# xmcd
#
# Track frame offsets:
#	150
#	13794
#	30419
#	46409
#	62369
#	75510
#	91877
#	105504
#	120316
#	135427
#	149246
#	164070
#	179694
#	191679
#	213652
#
# Disc length: 3068 seconds
#
# Revision: 1
# Processed by: cddbd v1.5.2PL0 Copyright (c) Steve Scherf et al.
# Submitted via: audiograbber 1.83.01
#
DISCID=ce0bfa0f
DTITLE=CALIMEROS - Sole, vino und amore
DYEAR=2007
DGENRE=Schlager
TTITLE0=Sole, vino und amore
TTITLE1=Chanson pour toi
TTITLE2=In Spanien blüh'n schon die Rosen
TTITLE3=Wenn die Nacht beginnt
TTITLE4=Give Me Your Love
TTITLE5=Ciao ciao, amore
TTITLE6=Gitarren in der Sommernacht
TTITLE7=Morgen küss ich deine Augen
TTITLE8=Perche, warum, perche
TTITLE9=Das kleine Mädchen
TTITLE10=Einmal mit dir, immer mit dir
TTITLE11=Zigeunerin der Berge
TTITLE12=Bring mir Glück Schornsteinfeger
TTITLE13=We'd Stärne hüt ds'(Nacht am Himmel stöh')
TTITLE14=Angel Eyes
EXTD=
EXTT0=
EXTT1=
EXTT2=
EXTT3=
EXTT4=
EXTT5=
EXTT6=
EXTT7=
EXTT8=
EXTT9=
EXTT10=
EXTT11=
EXTT12=
EXTT13=
EXTT14=
PLAYORDER=
